<svg id="Layer_1" data-name="Layer 1" xmlns="http://www.w3.org/2000/svg" xmlns:xlink="http://www.w3.org/1999/xlink" viewBox="0 0 3000 3000"><defs><style>.cls-1{fill:none;}.cls-2{fill:#59bec9;}.cls-3{fill:url(#New_Pattern_Swatch_17);}</style><pattern id="New_Pattern_Swatch_17" data-name="New Pattern Swatch 17" width="113.9" height="113.9" patternTransform="translate(-38.6 -88.8)" patternUnits="userSpaceOnUse" viewBox="0 0 113.9 113.9"><rect class="cls-1" width="113.9" height="113.9"/><path class="cls-2" d="M55.43,70.94l0,0C51,66.82,48.66,62,48.66,57A18.89,18.89,0,0,1,56,42.14L57.46,41l-4.52-2.85-.69.42C49.78,40.09,41.72,45.89,41.72,57c0,4.82,1.81,11.89,10.44,18.23l.77.56,4.14-3.07-1-1.06C55.85,71.4,55.65,71.18,55.43,70.94Z"/><path class="cls-2" d="M70.16,70.94l0,0c-4.41-4.08-6.73-8.9-6.73-14a18.89,18.89,0,0,1,7.36-14.81L72.18,41l-4.51-2.85-.69.42C64.51,40.09,56.44,45.89,56.44,57c0,4.82,1.82,11.89,10.45,18.23l.77.56,4.14-3.07-1-1.06C70.58,71.4,70.38,71.18,70.16,70.94Z"/><path class="cls-2" d="M-1.52,127.89l0,0C-6,123.77-8.29,119-8.29,113.9A18.89,18.89,0,0,1-.93,99.09L.51,98-4,95.11l-.69.42C-7.17,97-15.23,102.84-15.23,113.9c0,4.82,1.81,11.89,10.44,18.23l.77.56,4.14-3.07-1-1.06C-1.1,128.35-1.3,128.13-1.52,127.89Z"/><path class="cls-2" d="M13.21,127.89l0,0c-4.41-4.08-6.73-8.9-6.73-13.95A18.89,18.89,0,0,1,13.8,99.09L15.23,98l-4.51-2.85-.69.42C7.56,97-.51,102.84-.51,113.9c0,4.82,1.82,11.89,10.45,18.23l.77.56,4.14-3.07-1-1.06C13.63,128.35,13.43,128.13,13.21,127.89Z"/><path class="cls-2" d="M112.38,127.89l0,0c-4.4-4.08-6.73-8.9-6.73-13.95A18.89,18.89,0,0,1,113,99.09L114.41,98l-4.52-2.85-.69.42c-2.47,1.51-10.53,7.31-10.53,18.37,0,4.82,1.81,11.89,10.44,18.23l.77.56,4.14-3.07-1-1.06C112.8,128.35,112.6,128.13,112.38,127.89Z"/><path class="cls-2" d="M127.11,127.89l0,0c-4.41-4.08-6.73-8.9-6.73-13.95a18.89,18.89,0,0,1,7.36-14.81L129.13,98l-4.51-2.85-.69.42c-2.47,1.51-10.54,7.31-10.54,18.37,0,4.82,1.82,11.89,10.45,18.23l.77.56,4.14-3.07-1-1.06C127.53,128.35,127.33,128.13,127.11,127.89Z"/><path class="cls-2" d="M112.38,14l0,0c-4.4-4.08-6.73-8.9-6.73-13.95A18.89,18.89,0,0,1,113-14.81l1.44-1.13-4.52-2.85-.69.42C106.73-16.86,98.67-11.06,98.67,0c0,4.82,1.81,11.89,10.44,18.23l.77.56L114,15.72l-1-1.06C112.8,14.45,112.6,14.23,112.38,14Z"/><path class="cls-2" d="M127.11,14l0,0c-4.41-4.08-6.73-8.9-6.73-13.95a18.89,18.89,0,0,1,7.36-14.81l1.43-1.13-4.51-2.85-.69.42c-2.47,1.51-10.54,7.31-10.54,18.37,0,4.82,1.82,11.89,10.45,18.23l.77.56,4.14-3.07-1-1.06C127.53,14.45,127.33,14.23,127.11,14Z"/><path class="cls-2" d="M-1.52,14l0,0C-6,9.87-8.29,5.05-8.29,0A18.89,18.89,0,0,1-.93-14.81L.51-15.94-4-18.79l-.69.42C-7.17-16.86-15.23-11.06-15.23,0c0,4.82,1.81,11.89,10.44,18.23l.77.56L.12,15.72l-1-1.06C-1.1,14.45-1.3,14.23-1.52,14Z"/><path class="cls-2" d="M13.21,14l0,0C8.76,9.87,6.44,5.05,6.44,0A18.89,18.89,0,0,1,13.8-14.81l1.43-1.13-4.51-2.85-.69.42C7.56-16.86-.51-11.06-.51,0c0,4.82,1.82,11.89,10.45,18.23l.77.56,4.14-3.07-1-1.06C13.63,14.45,13.43,14.23,13.21,14Z"/></pattern></defs><title>SMACK_Patterns_RGB_Downy</title><rect class="cls-3" width="3000" height="3000"/></svg>