<svg id="Layer_1" data-name="Layer 1" xmlns="http://www.w3.org/2000/svg" viewBox="0 0 1920 1080"><defs><style>.cls-1{fill:#fcfaf7;}</style></defs><title>SMACK_Logo_RGB_QB Ecru White</title><path class="cls-1" d="M615.83,592.34c-35.63,0-58.91-7.85-92.86-26.65l14-31.42c32.26,15.43,55.27,24.41,74.91,24.41,24.4,0,59.75-7.3,59.75-29.18,0-17.67-28.33-21.88-62.56-25.25-41.24-4.21-88.93-10.66-88.93-56.11,0-49.38,60.31-60.32,97.35-60.32,33.38,0,63.4,8.14,92.3,25l-12.91,28.62c-25-13.19-54.14-20.2-79.39-20.2-40.12,0-53.59,13.46-53.59,25.25,0,19.92,43.49,20.48,57.8,21.88,39.83,3.37,94.54,10.1,94.54,61.16C716.27,579.44,655.39,592.34,615.83,592.34Z"/><path class="cls-1" d="M1005.24,589.54H965.12L951.93,473.67l-.56-.56L875.62,586.17H862.15L790.61,474l-.56.84L777.43,589.54H737.31L754.7,392.87h26.09l89.78,135h.56l90.62-135h24.41Z"/><path class="cls-1" d="M1200.66,589.54l-20.48-44-97.36.28-20.76,43.77h-43.2l96.79-197.23h37l92.58,197.23ZM1132.2,440.29h-.28l-34.79,73.5h69Z"/><path class="cls-1" d="M1236.69,490.5c0-64,60-103.52,115-103.52,43.77,0,75.75,16,98.48,34.51L1430.55,451c-19.08-14.87-42.65-29.18-77.15-29.18-36.76,0-71.83,26.37-71.83,69.58,0,42.08,35.07,69.29,71.55,69.29,34.5,0,59.19-14.59,78.83-29.74l22.16,25.53c-12.9,14.87-49.37,38.16-101.27,38.16C1302.06,594.59,1236.69,559,1236.69,490.5Z"/><path class="cls-1" d="M1609.82,589.54,1541.64,502,1517,524.45v65.09h-45.44V392.87H1517v85.29l92-85.29h48.25L1570.82,474,1662,589.54Z"/><path class="cls-1" d="M352.82,596.18l-.3-.29C322.09,567.69,306,534.33,306,499.42c0-39.4,18.56-76.7,50.91-102.34l9.9-7.84-31.22-19.69-4.75,2.9C313.76,382.92,258,423,258,499.42c0,33.32,12.53,82.24,72.22,126l5.32,3.9,28.63-21.21-7-7.34C355.74,599.31,354.35,597.83,352.82,596.18Z"/><path class="cls-1" d="M454.62,596.18l-.29-.3c-30.44-28.19-46.52-61.55-46.52-96.46,0-39.4,18.55-76.7,50.91-102.34l9.9-7.84-31.23-19.69-4.74,2.9c-17.09,10.47-72.84,50.56-72.84,127,0,33.32,12.53,82.24,72.22,126l5.33,3.9L466,608.14l-7-7.33C457.55,599.31,456.16,597.83,454.62,596.18Z"/><path class="cls-1" d="M831.88,631H850a36.91,36.91,0,0,1,8.72,1,18.88,18.88,0,0,1,6.7,3,13.52,13.52,0,0,1,4.28,5.11,16.88,16.88,0,0,1,1.51,7.46,16.5,16.5,0,0,1-1.64,7.63,14,14,0,0,1-4.52,5.2,20.44,20.44,0,0,1-6.88,3,36.57,36.57,0,0,1-8.59,1h-9.39v26.07h-8.3Zm8.3,26.24H849a26.4,26.4,0,0,0,5.58-.55A14,14,0,0,0,859,655a7.9,7.9,0,0,0,2.85-3,9.36,9.36,0,0,0,1-4.53,8.76,8.76,0,0,0-1.05-4.48,8.53,8.53,0,0,0-2.85-2.94,12.36,12.36,0,0,0-4.32-1.59,30,30,0,0,0-5.45-.46h-9Z"/><path class="cls-1" d="M912.78,670.38a21.5,21.5,0,0,1-1.63,8.47,20.07,20.07,0,0,1-4.53,6.66,20.48,20.48,0,0,1-6.83,4.36,23.92,23.92,0,0,1-16.94,0,20,20,0,0,1-6.79-4.36,20.4,20.4,0,0,1-4.48-6.66,21.5,21.5,0,0,1-1.64-8.47,21.23,21.23,0,0,1,1.64-8.43,19.77,19.77,0,0,1,11.27-10.89,23.77,23.77,0,0,1,16.94,0,20.84,20.84,0,0,1,6.83,4.31,19.84,19.84,0,0,1,4.53,6.58A21.23,21.23,0,0,1,912.78,670.38Zm-8.21,0a16.66,16.66,0,0,0-.89-5.43,13.77,13.77,0,0,0-2.56-4.56A12.25,12.25,0,0,0,897,657.3a14.35,14.35,0,0,0-11.35,0,12.31,12.31,0,0,0-4.16,3.13,13.8,13.8,0,0,0-2.57,4.56,17.19,17.19,0,0,0,0,10.86,14.3,14.3,0,0,0,2.57,4.6,12.06,12.06,0,0,0,4.16,3.18,14.35,14.35,0,0,0,11.35,0,12,12,0,0,0,4.17-3.18,14.27,14.27,0,0,0,2.56-4.6A16.62,16.62,0,0,0,904.57,670.42Z"/><path class="cls-1" d="M923.26,650.6l9,30.34h.17l9.47-30.34h8.3l9.64,30.34H960l9-30.34h8.3l-13.16,39.73h-8.22l-9.81-29.84h-.17l-9.72,29.84H928L914.71,650.6Z"/><path class="cls-1" d="M1018.91,670.13v1.34a12,12,0,0,1-.08,1.34H987.22a11.78,11.78,0,0,0,1.14,4.7,12.31,12.31,0,0,0,2.8,3.84,13.89,13.89,0,0,0,15.93,1.69,14.22,14.22,0,0,0,4.61-4.28l5.54,4.45a19.88,19.88,0,0,1-7.51,6.22,24.08,24.08,0,0,1-18,.48,19,19,0,0,1-11-10.81,22.22,22.22,0,0,1-1.59-8.55,22.68,22.68,0,0,1,1.55-8.51,19.26,19.26,0,0,1,10.88-11,22.4,22.4,0,0,1,16.09-.13,16.34,16.34,0,0,1,6,4.11,18.59,18.59,0,0,1,3.82,6.49A25.7,25.7,0,0,1,1018.91,670.13Zm-8-3.19a15.32,15.32,0,0,0-.8-4.4A10,10,0,0,0,1008,659a9.75,9.75,0,0,0-3.43-2.39,12.13,12.13,0,0,0-4.82-.88,12.68,12.68,0,0,0-4.74.88,12.14,12.14,0,0,0-3.86,2.39,12.49,12.49,0,0,0-2.68,3.56,11.51,11.51,0,0,0-1.22,4.4Z"/><path class="cls-1" d="M1026.37,655c0-1.68-.14-3.16-.25-4.44h7.47c.11,1,.19,2.16.25,3.47s.08,2.39.08,3.23h.25a13.74,13.74,0,0,1,4.91-5.66,12.86,12.86,0,0,1,7.25-2.14,12.37,12.37,0,0,1,3.1.34l-.33,7.29a14.89,14.89,0,0,0-3.61-.42,10.94,10.94,0,0,0-5,1,10.21,10.21,0,0,0-3.48,2.81,11.91,11.91,0,0,0-2,4.07,17,17,0,0,0-.67,4.82v20.87h-7.88V659.15Q1026.46,657.55,1026.37,655Z"/><path class="cls-1" d="M1089.09,670.13v1.34a10.05,10.05,0,0,1-.09,1.34h-31.6a11.6,11.6,0,0,0,1.13,4.7,12.18,12.18,0,0,0,2.81,3.84,13.22,13.22,0,0,0,9,3.45,13.27,13.27,0,0,0,7-1.76,14.26,14.26,0,0,0,4.62-4.28l5.53,4.45a19.88,19.88,0,0,1-7.51,6.22,24.08,24.08,0,0,1-18,.48,19.32,19.32,0,0,1-6.62-4.23,19.6,19.6,0,0,1-4.36-6.58,22.22,22.22,0,0,1-1.59-8.55,22.88,22.88,0,0,1,1.55-8.51,19.26,19.26,0,0,1,10.88-11,22.4,22.4,0,0,1,16.09-.13,16.34,16.34,0,0,1,6.05,4.11,18.44,18.44,0,0,1,3.82,6.49A25.7,25.7,0,0,1,1089.09,670.13Zm-8-3.19a15,15,0,0,0-.8-4.4,10.13,10.13,0,0,0-2.09-3.56,9.79,9.79,0,0,0-3.44-2.39,12.13,12.13,0,0,0-4.82-.88,12.68,12.68,0,0,0-4.74.88,12.14,12.14,0,0,0-3.86,2.39,12.49,12.49,0,0,0-2.68,3.56,11.33,11.33,0,0,0-1.21,4.4Z"/><path class="cls-1" d="M1128.32,684.05a14.69,14.69,0,0,1-6.16,5.49,18.67,18.67,0,0,1-8.18,1.88,20.21,20.21,0,0,1-8.29-1.63,18.48,18.48,0,0,1-6.29-4.49,20.22,20.22,0,0,1-4-6.7,23.56,23.56,0,0,1-1.42-8.22,23.12,23.12,0,0,1,1.42-8.17,20,20,0,0,1,4.07-6.67,18.49,18.49,0,0,1,6.33-4.44,20.34,20.34,0,0,1,8.13-1.6,16.84,16.84,0,0,1,8.47,2.06,17.53,17.53,0,0,1,5.7,5h.16V627h7.89v63.38h-7.63v-6.28Zm-26.16-13.63a17.25,17.25,0,0,0,.84,5.35,13.64,13.64,0,0,0,2.52,4.6,12.45,12.45,0,0,0,4.11,3.22,13.75,13.75,0,0,0,11.19,0,13.21,13.21,0,0,0,4.23-3.13,14.25,14.25,0,0,0,2.72-4.56,15.71,15.71,0,0,0,0-10.87,14.61,14.61,0,0,0-2.72-4.59,12.92,12.92,0,0,0-4.23-3.18,12.7,12.7,0,0,0-5.5-1.17,13,13,0,0,0-5.69,1.17,12,12,0,0,0-4.11,3.18,13.59,13.59,0,0,0-2.52,4.59A17.25,17.25,0,0,0,1102.16,670.42Z"/><path class="cls-1" d="M1171.91,684.05v6.28h-7.63V627h7.88v29.6h.25a16.6,16.6,0,0,1,5.61-5,16.89,16.89,0,0,1,8.53-2.06,20,20,0,0,1,8.07,1.6,18.64,18.64,0,0,1,6.27,4.44,19.74,19.74,0,0,1,4,6.67,23.12,23.12,0,0,1,1.43,8.17,23.56,23.56,0,0,1-1.43,8.22,20.17,20.17,0,0,1-4,6.7,18.59,18.59,0,0,1-6.27,4.49,20.16,20.16,0,0,1-8.28,1.63,18.28,18.28,0,0,1-8.11-1.88,15.27,15.27,0,0,1-6.19-5.49Zm26.41-13.63a17.25,17.25,0,0,0-.84-5.35,13.75,13.75,0,0,0-2.51-4.59,12.12,12.12,0,0,0-4.15-3.18,13.33,13.33,0,0,0-5.75-1.17,12.68,12.68,0,0,0-5.49,1.17,12.92,12.92,0,0,0-4.23,3.18,14.83,14.83,0,0,0-2.73,4.59,15.87,15.87,0,0,0,0,10.87,14.46,14.46,0,0,0,2.73,4.56,13.21,13.21,0,0,0,4.23,3.13,12.68,12.68,0,0,0,5.49,1.17,13,13,0,0,0,5.75-1.21,12.61,12.61,0,0,0,4.15-3.22,13.79,13.79,0,0,0,2.51-4.6A17.25,17.25,0,0,0,1198.32,670.42Z"/><path class="cls-1" d="M1229.17,681.78h.17l11-31.18h8.38l-19.28,49.12a31.72,31.72,0,0,1-2.18,4.48,13.48,13.48,0,0,1-2.76,3.36,11.67,11.67,0,0,1-3.74,2.14,15.3,15.3,0,0,1-5.07.75q-1.26,0-2.55-.12a19.23,19.23,0,0,1-2.64-.46l.75-7a12.35,12.35,0,0,0,3.94.67,5.82,5.82,0,0,0,4.61-1.72,16.83,16.83,0,0,0,2.77-4.9l2.51-6.63-17-39.73h8.81Z"/><path class="cls-1" d="M1333.71,690.33h-34.87a34.41,34.41,0,0,1-12.45-2.18,28.92,28.92,0,0,1-9.77-6.12,27,27,0,0,1-6.37-9.56A33.31,33.31,0,0,1,1268,659.9a31.43,31.43,0,0,1,2.35-12.28,29.06,29.06,0,0,1,6.46-9.6,29.44,29.44,0,0,1,9.76-6.29,33,33,0,0,1,12.37-2.26,32.43,32.43,0,0,1,12.24,2.26,29.61,29.61,0,0,1,9.73,6.29,28.63,28.63,0,0,1,6.41,9.6,32,32,0,0,1,2.3,12.28,27.85,27.85,0,0,1-3.35,13.92,25.73,25.73,0,0,1-8.89,9.39v.16h16.35ZM1277,659.9a26.06,26.06,0,0,0,1.55,9.09,21.68,21.68,0,0,0,4.4,7.34,20.68,20.68,0,0,0,6.87,4.91,23.35,23.35,0,0,0,18,0,20.58,20.58,0,0,0,6.92-4.91,22.45,22.45,0,0,0,4.45-7.34,25.62,25.62,0,0,0,1.59-9.09,26.39,26.39,0,0,0-1.51-9,22,22,0,0,0-4.36-7.34,21,21,0,0,0-6.87-5,21.85,21.85,0,0,0-25,5,22,22,0,0,0-4.44,7.34A25.47,25.47,0,0,0,1277,659.9Z"/><path class="cls-1" d="M1366.15,690.33c-.11-1-.19-2.13-.25-3.39s-.08-2.31-.08-3.15h-.17a12.93,12.93,0,0,1-5.07,5.41,14.67,14.67,0,0,1-7.92,2.22,16.2,16.2,0,0,1-6.67-1.26,12.22,12.22,0,0,1-4.61-3.48,14.61,14.61,0,0,1-2.68-5.15,21.68,21.68,0,0,1-.88-6.29V650.6h7.88v22a26.86,26.86,0,0,0,.38,4.65,11.14,11.14,0,0,0,1.38,3.9,7.43,7.43,0,0,0,2.77,2.68,9,9,0,0,0,4.53,1,9.53,9.53,0,0,0,7.71-3.56q2.92-3.57,2.93-9.52V650.6h7.88v31.18c0,1.06,0,2.43.08,4.11s.14,3.15.26,4.44Z"/><path class="cls-1" d="M1392.81,636.26a4.68,4.68,0,0,1-1.54,3.6,5.23,5.23,0,0,1-3.69,1.43,5,5,0,0,1-3.67-1.47,4.8,4.8,0,0,1-1.49-3.56,4.94,4.94,0,0,1,1.49-3.65,5,5,0,0,1,3.67-1.47,5.13,5.13,0,0,1,3.69,1.47A4.83,4.83,0,0,1,1392.81,636.26Zm-1.26,54.07h-7.88V650.6h7.88Z"/><path class="cls-1" d="M1429.78,660.65a9.54,9.54,0,0,0-3.77-3.22,11.5,11.5,0,0,0-5.36-1.3,12.36,12.36,0,0,0-5.5,1.17,12.56,12.56,0,0,0-4.06,3.14,13.92,13.92,0,0,0-2.56,4.57,17.32,17.32,0,0,0,0,10.9,13.82,13.82,0,0,0,2.56,4.57,12.43,12.43,0,0,0,4.1,3.15,13.58,13.58,0,0,0,11,0,11.42,11.42,0,0,0,4.07-3.19l5.28,4.78a17.13,17.13,0,0,1-6.29,4.57,21.34,21.34,0,0,1-8.55,1.63,23.28,23.28,0,0,1-8.51-1.51,20.18,20.18,0,0,1-6.75-4.23,19.62,19.62,0,0,1-4.49-6.58,21.92,21.92,0,0,1-1.63-8.64,22.22,22.22,0,0,1,1.59-8.55,19.41,19.41,0,0,1,4.45-6.62,19.89,19.89,0,0,1,6.74-4.28,23.29,23.29,0,0,1,8.43-1.51,22.06,22.06,0,0,1,8.34,1.68,15.26,15.26,0,0,1,6.58,4.86Z"/><path class="cls-1" d="M1448.06,667.86h.25L1465,650.6h10.57l-18.61,18,20.2,21.71h-10.9l-17.94-20.62h-.25v20.62h-7.88V627h7.88Z"/><path class="cls-1" d="M1498.86,631h20.45a30.76,30.76,0,0,1,6.72.75,17.54,17.54,0,0,1,6,2.52,13.51,13.51,0,0,1,4.27,4.61,14.13,14.13,0,0,1,1.64,7.12,12.36,12.36,0,0,1-2.85,8.3,14.48,14.48,0,0,1-7.55,4.61v.17a17.2,17.2,0,0,1,5.28,1.47,14,14,0,0,1,4.2,3,13,13,0,0,1,2.72,4.36,15.67,15.67,0,0,1,1,5.62,15.21,15.21,0,0,1-1.75,7.46,15,15,0,0,1-4.79,5.24,22.4,22.4,0,0,1-7.08,3.1,34.58,34.58,0,0,1-8.68,1.05h-19.53Zm8.3,25.06H1518a18.23,18.23,0,0,0,4.49-.54,11,11,0,0,0,3.73-1.68,8.23,8.23,0,0,0,2.52-2.85,8.71,8.71,0,0,0,.92-4.15c0-3.18-1.18-5.46-3.52-6.83s-5.51-2-9.48-2h-9.47Zm0,27.25h10.4a30.18,30.18,0,0,0,5.24-.46,15.12,15.12,0,0,0,4.77-1.64,9.46,9.46,0,0,0,3.44-3.14,8.86,8.86,0,0,0,1.3-5q0-5.28-3.6-7.63t-10.4-2.34h-11.15Z"/><path class="cls-1" d="M1573.64,664.59q0-4.44-2.68-6.58a11.15,11.15,0,0,0-7.13-2.13,15.79,15.79,0,0,0-6.33,1.29,16.3,16.3,0,0,0-5,3.32l-4.19-5a21.12,21.12,0,0,1,7.17-4.36,25.64,25.64,0,0,1,9.1-1.6,20.47,20.47,0,0,1,7.41,1.22,14,14,0,0,1,5.16,3.31,13.62,13.62,0,0,1,3,5,18.27,18.27,0,0,1,1,6.12v17.35c0,1.34,0,2.76.12,4.23a22.74,22.74,0,0,0,.46,3.65h-7.12a24.65,24.65,0,0,1-.67-5.7h-.25a15.34,15.34,0,0,1-5.5,5,16.5,16.5,0,0,1-7.84,1.76,20.46,20.46,0,0,1-4.9-.63,14.34,14.34,0,0,1-4.65-2.05,11.62,11.62,0,0,1-3.48-3.78,11.22,11.22,0,0,1-1.38-5.78,10.13,10.13,0,0,1,2.43-7.17,15.35,15.35,0,0,1,6.37-4,35.69,35.69,0,0,1,8.88-1.81q5-.42,10-.42Zm-1.93,6.8q-2.93,0-6.08.25a27.9,27.9,0,0,0-5.7,1,10.73,10.73,0,0,0-4.23,2.27,5.12,5.12,0,0,0-1.68,4,5.51,5.51,0,0,0,.72,2.93,5.78,5.78,0,0,0,1.88,1.93,7.61,7.61,0,0,0,2.6,1.05,14.23,14.23,0,0,0,2.94.29q5.53,0,8.5-3.31a12,12,0,0,0,3-8.34v-2.09Z"/><path class="cls-1" d="M1612.46,660.65a10.35,10.35,0,0,0-3.77-3.56,10.85,10.85,0,0,0-5.45-1.38,13,13,0,0,0-2.69.29,8,8,0,0,0-2.39.92,5,5,0,0,0-1.67,1.6,4.26,4.26,0,0,0-.63,2.38,4,4,0,0,0,2.26,3.74,27.71,27.71,0,0,0,6.8,2.22,43.7,43.7,0,0,1,5.27,1.59,16.33,16.33,0,0,1,4.24,2.31,9.89,9.89,0,0,1,2.81,3.31,9.67,9.67,0,0,1,1,4.53,12.12,12.12,0,0,1-1.34,5.95,11.56,11.56,0,0,1-3.56,4,14.72,14.72,0,0,1-5.07,2.22,25.4,25.4,0,0,1-5.87.67,23.32,23.32,0,0,1-8.85-1.76,17.13,17.13,0,0,1-7.16-5.37l5.62-4.77a12.77,12.77,0,0,0,4.39,3.94,12.33,12.33,0,0,0,6.17,1.59,13.62,13.62,0,0,0,2.89-.3,8,8,0,0,0,2.51-1,5,5,0,0,0,1.8-1.76,5.18,5.18,0,0,0,.68-2.76,4.35,4.35,0,0,0-2.64-4.11,35.71,35.71,0,0,0-7.76-2.52c-1.34-.33-2.7-.74-4.07-1.21a13.86,13.86,0,0,1-3.73-2,10,10,0,0,1-2.72-3.15,9.46,9.46,0,0,1-1-4.65,11.09,11.09,0,0,1,1.3-5.49,11.3,11.3,0,0,1,3.39-3.77,14.77,14.77,0,0,1,4.79-2.18,21.32,21.32,0,0,1,13.79,1,13.76,13.76,0,0,1,6.16,4.86Z"/><path class="cls-1" d="M1662,670.13v1.34a10.05,10.05,0,0,1-.09,1.34h-31.6a11.77,11.77,0,0,0,1.13,4.7,12.49,12.49,0,0,0,2.81,3.84,13.89,13.89,0,0,0,15.93,1.69,14.33,14.33,0,0,0,4.61-4.28l5.53,4.45a19.77,19.77,0,0,1-7.5,6.22,24.08,24.08,0,0,1-18,.48,18.95,18.95,0,0,1-11-10.81,22,22,0,0,1-1.6-8.55,22.88,22.88,0,0,1,1.55-8.51,19.58,19.58,0,0,1,4.33-6.67,19.85,19.85,0,0,1,6.56-4.31,22.38,22.38,0,0,1,16.08-.13,16.34,16.34,0,0,1,6,4.11,18.29,18.29,0,0,1,3.82,6.49A25.7,25.7,0,0,1,1662,670.13Zm-8-3.19a15,15,0,0,0-.8-4.4,10,10,0,0,0-2.09-3.56,9.7,9.7,0,0,0-3.44-2.39,12.09,12.09,0,0,0-4.82-.88,12.63,12.63,0,0,0-4.73.88,12.14,12.14,0,0,0-3.86,2.39,12.31,12.31,0,0,0-2.68,3.56,11.34,11.34,0,0,0-1.22,4.4Z"/></svg>