<?xml version="1.0" encoding="utf-8"?>
<!-- Generator: Adobe Illustrator 23.0.4, SVG Export Plug-In . SVG Version: 6.00 Build 0)  -->
<svg version="1.1" id="Layer_1" xmlns="http://www.w3.org/2000/svg" xmlns:xlink="http://www.w3.org/1999/xlink" x="0px" y="0px"
	 viewBox="0 0 1594.2 391.9" style="enable-background:new 0 0 1594.2 391.9;" xml:space="preserve">
<style type="text/css">
	.st0{fill:#FFFFFF;}
</style>
<title>SMACK_Logo_RGB_White</title>
<path class="st0" d="M451.9,289.4c-35.6,0-58.9-7.8-92.9-26.7l14-31.4c32.3,15.4,55.3,24.4,74.9,24.4c24.4,0,59.8-7.3,59.8-29.2
	c0-17.7-28.3-21.9-62.6-25.2c-41.2-4.2-88.9-10.7-88.9-56.1c0-49.4,60.3-60.3,97.3-60.3c33.4,0,63.4,8.1,92.3,25L533,138.5
	c-25-13.2-54.1-20.2-79.4-20.2c-40.1,0-53.6,13.5-53.6,25.2c0,19.9,43.5,20.5,57.8,21.9c39.8,3.4,94.5,10.1,94.5,61.2
	C552.4,276.5,491.5,289.4,451.9,289.4z"/>
<path class="st0" d="M841.3,286.6h-40.1L788,170.7l-0.6-0.6l-75.8,113.1h-13.5L626.7,171l-0.6,0.8l-12.6,114.7h-40.1l17.4-196.7
	h26.1l89.8,135h0.6l90.6-135h24.4L841.3,286.6z"/>
<path class="st0" d="M1036.8,286.6l-20.5-44l-97.4,0.3l-20.8,43.8H855l96.8-197.2h37l92.6,197.2L1036.8,286.6z M968.3,137.3H968
	l-34.8,73.5h69L968.3,137.3z"/>
<path class="st0" d="M1072.8,187.5c0-64,60-103.5,115-103.5c43.8,0,75.8,16,98.5,34.5l-19.6,29.5c-19.1-14.9-42.7-29.2-77.2-29.2
	c-36.8,0-71.8,26.4-71.8,69.6c0,42.1,35.1,69.3,71.6,69.3c34.5,0,59.2-14.6,78.8-29.7l22.2,25.5c-12.9,14.9-49.4,38.2-101.3,38.2
	C1138.2,291.6,1072.8,256,1072.8,187.5z"/>
<path class="st0" d="M1445.9,286.6l-68.2-87.5l-24.6,22.5v65.1h-45.4V89.9h45.4v85.3l92-85.3h48.2l-86.4,81.1l91.2,115.5H1445.9z"/>
<path class="st0" d="M188.9,293.2l-0.3-0.3c-30.4-28.2-46.5-61.6-46.5-96.5c0-39.4,18.6-76.7,50.9-102.3l9.9-7.8l-31.2-19.7
	l-4.8,2.9C149.9,80,94.1,120,94.1,196.5c0,33.3,12.5,82.2,72.2,126l5.3,3.9l28.6-21.2l-7-7.3C191.8,296.4,190.5,294.9,188.9,293.2z"
	/>
<path class="st0" d="M290.7,293.2l-0.3-0.3c-30.4-28.2-46.5-61.5-46.5-96.5c0-39.4,18.5-76.7,50.9-102.3l9.9-7.8l-31.2-19.7
	l-4.7,2.9c-17.1,10.5-72.8,50.6-72.8,127c0,33.3,12.5,82.2,72.2,126l5.3,3.9l28.6-21.2l-7-7.3C293.7,296.4,292.3,294.9,290.7,293.2z
	"/>
</svg>
