<?xml version="1.0" encoding="utf-8"?>
<!-- Generator: Adobe Illustrator 23.0.3, SVG Export Plug-In . SVG Version: 6.00 Build 0)  -->
<svg version="1.1" id="Layer_1" xmlns="http://www.w3.org/2000/svg" xmlns:xlink="http://www.w3.org/1999/xlink" x="0px" y="0px"
	 viewBox="0 0 460 94" style="enable-background:new 0 0 460 94;" xml:space="preserve">
<style type="text/css">
	.st0{fill:#FCFAF7;}
	.st1{fill:#FFB81C;}
</style>
<g>
	<path class="st0" d="M120.4,76.6c-11.4,0-18.8-2.5-29.6-8.5l4.5-10c10.3,4.9,17.6,7.8,23.9,7.8c7.8,0,19-2.3,19-9.3
		c0-5.6-9-7-19.9-8c-13.1-1.3-28.3-3.4-28.3-17.9c0-15.7,19.2-19.2,31-19.2c10.6,0,20.2,2.6,29.4,8l-4.1,9.1
		c-8-4.2-17.2-6.4-25.3-6.4c-12.8,0-17.1,4.3-17.1,8c0,6.3,13.9,6.5,18.4,7c12.7,1.1,30.1,3.2,30.1,19.5
		C152.4,72.5,133,76.6,120.4,76.6"/>
</g>
<polygon class="st0" points="244.4,75.7 231.6,75.7 227.4,38.8 227.3,38.6 203.1,74.6 198.8,74.6 176,38.9 175.9,39.1 171.8,75.7 
	159.1,75.7 164.6,13 172.9,13 201.5,56 201.7,56 230.6,13 238.3,13 "/>
<path class="st0" d="M284.5,28.2L284.5,28.2l-11.2,23.4h22L284.5,28.2z M306.3,75.7l-6.5-14l-31,0.1l-6.6,13.9h-13.8l30.8-62.8h11.8
	l29.5,62.8H306.3z"/>
<g>
	<path class="st0" d="M318.1,44.1c0-20.4,19.1-33,36.6-33c13.9,0,24.1,5.1,31.4,11l-6.3,9.4c-6.1-4.7-13.6-9.3-24.6-9.3
		c-11.7,0-22.9,8.4-22.9,22.2c0,13.4,11.2,22.1,22.8,22.1c11,0,18.9-4.6,25.1-9.5l7.1,8.1c-4.1,4.7-15.7,12.2-32.3,12.2
		C339,77.3,318.1,66,318.1,44.1"/>
</g>
<polygon class="st0" points="437,75.7 415.3,47.8 407.4,55 407.4,75.7 392.9,75.7 392.9,13 407.4,13 407.4,40.2 436.7,13 452.1,13 
	424.6,38.9 453.6,75.7 "/>
<g>
	<path class="st1" d="M36.6,77.8L36.6,77.8C26.8,68.7,21.7,58.1,21.7,47c0-12.6,5.9-24.4,16.2-32.6l3.2-2.5l-9.9-6.3l-1.5,0.9
		C24.1,9.9,6.4,22.6,6.4,47c0,10.6,4,26.2,23,40.1l1.7,1.2l9.1-6.8L38,79.3C37.5,78.8,37.1,78.3,36.6,77.8"/>
	<path class="st1" d="M69,77.8L69,77.8C59.2,68.7,54.1,58.1,54.1,47c0-12.6,5.9-24.4,16.2-32.6l3.2-2.5l-9.9-6.3L62,6.5
		C56.6,9.9,38.8,22.6,38.8,47c0,10.6,4,26.2,23,40.1l1.7,1.2l9.1-6.8l-2.2-2.3C69.9,78.8,69.5,78.3,69,77.8"/>
</g>
</svg>
