<?xml version="1.0" encoding="utf-8"?>
<!-- Generator: Adobe Illustrator 23.0.3, SVG Export Plug-In . SVG Version: 6.00 Build 0)  -->
<svg version="1.1" id="Layer_1" xmlns="http://www.w3.org/2000/svg" xmlns:xlink="http://www.w3.org/1999/xlink" x="0px" y="0px"
	 viewBox="0 0 460 94" style="enable-background:new 0 0 460 94;" xml:space="preserve">
<style type="text/css">
	.st0{fill:#4A4F54;}
	.st1{fill:#FFB81C;}
</style>
<g>
	<path class="st0" d="M119.7,77c-11.4,0-18.8-2.5-29.6-8.5l4.5-10c10.3,4.9,17.6,7.8,23.9,7.8c7.8,0,19-2.3,19-9.3c0-5.6-9-7-19.9-8
		c-13.1-1.3-28.3-3.4-28.3-17.9c0-15.7,19.2-19.2,31-19.2c10.6,0,20.2,2.6,29.4,8l-4.1,9.1c-8-4.2-17.2-6.4-25.3-6.4
		c-12.8,0-17.1,4.3-17.1,8c0,6.3,13.9,6.5,18.4,7c12.7,1.1,30.1,3.2,30.1,19.5C151.7,72.8,132.3,77,119.7,77"/>
</g>
<polygon class="st0" points="243.7,76.1 230.9,76.1 226.7,39.1 226.5,39 202.4,75 198.1,75 175.3,39.2 175.2,39.5 171.1,76.1 
	158.4,76.1 163.9,13.4 172.2,13.4 200.8,56.4 201,56.4 229.9,13.4 237.6,13.4 "/>
<path class="st0" d="M283.8,28.5L283.8,28.5l-11.2,23.4h22L283.8,28.5z M305.6,76.1l-6.5-14l-31,0.1l-6.6,13.9h-13.8l30.8-62.8h11.8
	l29.5,62.8H305.6z"/>
<g>
	<path class="st0" d="M317.4,44.5c0-20.4,19.1-33,36.6-33c13.9,0,24.1,5.1,31.4,11l-6.3,9.4c-6.1-4.7-13.6-9.3-24.6-9.3
		c-11.7,0-22.9,8.4-22.9,22.2c0,13.4,11.2,22.1,22.8,22.1c11,0,18.9-4.6,25.1-9.5l7.1,8.1c-4.1,4.7-15.7,12.2-32.3,12.2
		C338.3,77.7,317.4,66.3,317.4,44.5"/>
</g>
<polygon class="st0" points="436.3,76.1 414.6,48.2 406.7,55.3 406.7,76.1 392.2,76.1 392.2,13.4 406.7,13.4 406.7,40.6 436,13.4 
	451.4,13.4 423.9,39.2 452.9,76.1 "/>
<g>
	<path class="st1" d="M35.9,78.2L35.9,78.2C26.1,69.1,21,58.5,21,47.4c0-12.6,5.9-24.4,16.2-32.6l3.2-2.5L30.4,6l-1.5,0.9
		C23.4,10.2,5.7,23,5.7,47.4c0,10.6,4,26.2,23,40.1l1.7,1.2l9.1-6.8l-2.2-2.3C36.8,79.2,36.4,78.7,35.9,78.2"/>
	<path class="st1" d="M68.3,78.2L68.3,78.2c-9.8-9.1-14.9-19.7-14.9-30.8c0-12.6,5.9-24.4,16.2-32.6l3.2-2.5L62.8,6l-1.5,0.9
		C55.9,10.2,38.1,23,38.1,47.4c0,10.6,4,26.2,23,40.1l1.7,1.2l9.1-6.8l-2.2-2.3C69.2,79.2,68.8,78.7,68.3,78.2"/>
</g>
</svg>
