<?xml version="1.0" encoding="utf-8"?>
<svg version="1.1" id="Layer_1" xmlns="http://www.w3.org/2000/svg" xmlns:xlink="http://www.w3.org/1999/xlink" x="0px" y="0px"
	 viewBox="0 0 1024 1024" style="enable-background:new 0 0 1024 1024;" xml:space="preserve">
<g>
	<path d="M489.7,711.1l-0.6-0.6c-62.8-58.2-96-127-96-199.1c0-81.3,38.3-158.3,105.1-211.2l20.4-16.2l-64.4-40.6l-9.8,6
		C409,270.9,294,353.7,294,511.4c0,68.8,25.9,169.7,149.1,260.1l11,8.1l59.1-43.8l-14.4-15.1C495.7,717.5,492.8,714.5,489.7,711.1z"
		/>
	<path d="M699.8,711.1l-0.6-0.6c-62.8-58.2-96-127-96-199.1c0-81.3,38.3-158.3,105.1-211.2l20.4-16.2l-64.4-40.6l-9.8,6
		c-35.3,21.6-150.3,104.3-150.3,262c0,68.8,25.9,169.7,149.1,260.1l11,8.1l59.1-43.8l-14.4-15.1
		C705.8,717.5,702.9,714.5,699.8,711.1z"/>
</g>
</svg>
