<?xml version="1.0" encoding="utf-8"?>
<!-- Generator: Adobe Illustrator 23.0.3, SVG Export Plug-In . SVG Version: 6.00 Build 0)  -->
<svg version="1.1" id="Layer_1" xmlns="http://www.w3.org/2000/svg" xmlns:xlink="http://www.w3.org/1999/xlink" x="0px" y="0px"
	 viewBox="0 0 1024 1024" style="enable-background:new 0 0 1024 1024;" xml:space="preserve">
<style type="text/css">
	.st0{fill:none;}
	.st1{fill:#FDB71D;}
	.st2{fill:url(#SVGID_1_);}
</style>
<pattern  width="113.9" height="113.9" patternUnits="userSpaceOnUse" id="New_Pattern_Swatch_19" viewBox="15.2 -132.7 113.9 113.9" style="overflow:visible;">
	<g>
		<rect x="15.2" y="-132.7" class="st0" width="113.9" height="113.9"/>
		<g>
			<path class="st1" d="M70.7-61.8L70.7-61.8c-4.4-4.1-6.8-8.9-6.8-14c0-5.7,2.7-11.1,7.4-14.8l1.4-1.1l-4.5-2.8l-0.7,0.4
				C65-92.6,57-86.8,57-75.7c0,4.8,1.8,11.9,10.4,18.2l0.8,0.6l4.1-3.1l-1-1.1C71.1-61.3,70.9-61.5,70.7-61.8z"/>
			<path class="st1" d="M85.4-61.8L85.4-61.8c-4.4-4.1-6.8-8.9-6.8-14c0-5.7,2.7-11.1,7.4-14.8l1.4-1.1l-4.5-2.8l-0.7,0.4
				c-2.5,1.5-10.5,7.3-10.5,18.4c0,4.8,1.8,11.9,10.4,18.2l0.8,0.6L87-60l-1-1.1C85.8-61.3,85.6-61.5,85.4-61.8z"/>
		</g>
		<g>
			<path class="st1" d="M13.7-4.8L13.7-4.8c-4.4-4.1-6.8-8.9-6.8-14c0-5.7,2.7-11.1,7.4-14.8l1.4-1.1l-4.5-2.8l-0.7,0.4
				C8.1-35.7,0-29.9,0-18.8C0-14,1.8-6.9,10.4-0.6L11.2,0l4.1-3.1l-1-1.1C14.1-4.3,13.9-4.6,13.7-4.8z"/>
			<path class="st1" d="M28.4-4.8L28.4-4.8c-4.4-4.1-6.8-8.9-6.8-14c0-5.7,2.7-11.1,7.4-14.8l1.4-1.1L26-37.6l-0.7,0.4
				c-2.5,1.5-10.5,7.3-10.5,18.4c0,4.8,1.8,11.9,10.4,18.2L25.9,0l4.1-3.1l-1-1.1C28.9-4.3,28.7-4.6,28.4-4.8z"/>
		</g>
		<g>
			<path class="st1" d="M127.6-4.8L127.6-4.8c-4.4-4.1-6.8-8.9-6.8-14c0-5.7,2.7-11.1,7.4-14.8l1.4-1.1l-4.5-2.8l-0.7,0.4
				c-2.5,1.5-10.5,7.3-10.5,18.4c0,4.8,1.8,11.9,10.4,18.2l0.8,0.6l4.1-3.1l-1-1.1C128-4.3,127.8-4.6,127.6-4.8z"/>
			<path class="st1" d="M142.3-4.8L142.3-4.8c-4.4-4.1-6.8-8.9-6.8-14c0-5.7,2.7-11.1,7.4-14.8l1.4-1.1l-4.5-2.8l-0.7,0.4
				c-2.5,1.5-10.5,7.3-10.5,18.4c0,4.8,1.8,11.9,10.4,18.2l0.8,0.6l4.1-3.1l-1-1.1C142.8-4.3,142.6-4.6,142.3-4.8z"/>
		</g>
		<g>
			<path class="st1" d="M127.6-118.7L127.6-118.7c-4.4-4.1-6.8-8.9-6.8-14c0-5.7,2.7-11.1,7.4-14.8l1.4-1.1l-4.5-2.8l-0.7,0.4
				c-2.5,1.5-10.5,7.3-10.5,18.4c0,4.8,1.8,11.9,10.4,18.2l0.8,0.6l4.1-3.1l-1-1.1C128-118.2,127.8-118.5,127.6-118.7z"/>
			<path class="st1" d="M142.3-118.7L142.3-118.7c-4.4-4.1-6.8-8.9-6.8-14c0-5.7,2.7-11.1,7.4-14.8l1.4-1.1l-4.5-2.8l-0.7,0.4
				c-2.5,1.5-10.5,7.3-10.5,18.4c0,4.8,1.8,11.9,10.4,18.2l0.8,0.6l4.1-3.1l-1-1.1C142.8-118.2,142.6-118.5,142.3-118.7z"/>
		</g>
		<g>
			<path class="st1" d="M13.7-118.7L13.7-118.7c-4.4-4.1-6.8-8.9-6.8-14c0-5.7,2.7-11.1,7.4-14.8l1.4-1.1l-4.5-2.8l-0.7,0.4
				C8.1-149.6,0-143.8,0-132.7c0,4.8,1.8,11.9,10.4,18.2l0.8,0.6l4.1-3.1l-1-1.1C14.1-118.2,13.9-118.5,13.7-118.7z"/>
			<path class="st1" d="M28.4-118.7L28.4-118.7c-4.4-4.1-6.8-8.9-6.8-14c0-5.7,2.7-11.1,7.4-14.8l1.4-1.1l-4.5-2.8l-0.7,0.4
				c-2.5,1.5-10.5,7.3-10.5,18.4c0,4.8,1.8,11.9,10.4,18.2l0.8,0.6l4.1-3.1l-1-1.1C28.9-118.2,28.7-118.5,28.4-118.7z"/>
		</g>
	</g>
</pattern>
<pattern  id="SVGID_1_" xlink:href="#New_Pattern_Swatch_19" patternTransform="matrix(0.3413 0 0 0.3413 -5036.96 -4457.0562)">
</pattern>
<rect class="st2" width="1024" height="1024"/>
</svg>
