<svg id="Layer_1" data-name="Layer 1" xmlns="http://www.w3.org/2000/svg" viewBox="0 0 1000 1000"><defs><style>.cls-1{fill:#52575b;}</style></defs><title>SMACK_Motion Lines_RGB_Dark Grey</title><path class="cls-1" d="M463.81,827.66l-1-1c-102.95-95.4-157.37-208.23-157.36-326.32,0-133.3,62.76-259.49,172.2-346.19l33.49-26.54L405.53,61l-16,9.83c-57.81,35.41-246.41,171-246.42,429.52,0,112.71,42.39,278.18,244.32,426.34l18,13.22,96.82-71.78-23.66-24.8C473.7,838.24,469,833.24,463.81,827.66Z"/><path class="cls-1" d="M808.21,827.65l-1-1c-103-95.39-157.37-208.22-157.36-326.31,0-133.3,62.76-259.49,172.21-346.19l33.49-26.54L749.93,61l-16,9.83c-57.8,35.41-246.41,171-246.42,429.52,0,112.71,42.4,278.18,244.33,426.36l18,13.19,96.81-71.78-23.67-24.78C818.1,838.26,813.41,833.25,808.21,827.65Z"/></svg>