<svg id="Layer_1" data-name="Layer 1" xmlns="http://www.w3.org/2000/svg" viewBox="0 0 1920 1080"><defs><style>.cls-1{fill:#52575b;}.cls-2{fill:#ffb81c;}</style></defs><title>SMACK_Logo_RGB_Colour</title><path class="cls-1" d="M615.83,592.34c-35.63,0-58.91-7.85-92.86-26.65l14-31.42c32.26,15.43,55.27,24.41,74.91,24.41,24.4,0,59.75-7.3,59.75-29.18,0-17.67-28.33-21.88-62.56-25.25-41.24-4.21-88.93-10.66-88.93-56.11,0-49.38,60.31-60.32,97.35-60.32,33.38,0,63.4,8.14,92.3,25l-12.91,28.62c-25-13.19-54.14-20.2-79.39-20.2-40.12,0-53.59,13.46-53.59,25.25,0,19.92,43.49,20.48,57.8,21.88,39.83,3.37,94.54,10.1,94.54,61.16C716.27,579.44,655.39,592.34,615.83,592.34Z"/><path class="cls-1" d="M1005.24,589.54H965.12L951.93,473.67l-.56-.56L875.62,586.17H862.15L790.61,474l-.56.84L777.43,589.54H737.31L754.7,392.87h26.09l89.78,135h.56l90.62-135h24.41Z"/><path class="cls-1" d="M1200.66,589.54l-20.48-44-97.36.28-20.76,43.77h-43.2l96.79-197.23h37l92.58,197.23ZM1132.2,440.29h-.28l-34.79,73.5h69Z"/><path class="cls-1" d="M1236.69,490.5c0-64,60-103.52,115-103.52,43.77,0,75.75,16,98.48,34.51L1430.55,451c-19.08-14.87-42.65-29.18-77.15-29.18-36.76,0-71.83,26.37-71.83,69.58,0,42.08,35.07,69.29,71.55,69.29,34.5,0,59.19-14.59,78.83-29.74l22.16,25.53c-12.9,14.87-49.37,38.16-101.27,38.16C1302.06,594.59,1236.69,559,1236.69,490.5Z"/><path class="cls-1" d="M1609.82,589.54,1541.64,502,1517,524.45v65.09h-45.44V392.87H1517v85.29l92-85.29h48.25L1570.82,474,1662,589.54Z"/><path class="cls-2" d="M352.82,596.18l-.3-.29C322.09,567.69,306,534.33,306,499.42c0-39.4,18.56-76.7,50.91-102.34l9.9-7.84-31.22-19.69-4.75,2.9C313.76,382.92,258,423,258,499.42c0,33.32,12.53,82.24,72.22,126l5.32,3.9,28.63-21.21-7-7.34C355.74,599.31,354.35,597.83,352.82,596.18Z"/><path class="cls-2" d="M454.62,596.18l-.29-.3c-30.44-28.19-46.52-61.55-46.52-96.46,0-39.4,18.55-76.7,50.91-102.34l9.9-7.84-31.23-19.69-4.74,2.9c-17.09,10.47-72.84,50.56-72.84,127,0,33.32,12.53,82.24,72.22,126l5.33,3.9L466,608.14l-7-7.33C457.55,599.31,456.16,597.83,454.62,596.18Z"/></svg>